<!-- <svg width="167" height="32" viewBox="0 0 167 32" fill="none" xmlns="http://www.w3.org/2000/svg">
<path d="M55.4644 27.0478L50.0044 12.1678H54.0244L57.8044 23.4178L61.5844 12.1678H65.6044L60.1144 27.0478H55.4644Z" fill="#EB662B"/>
<path d="M70.0964 9.85775C69.3964 9.85775 68.8164 9.64775 68.3564 9.22775C67.9164 8.80775 67.6964 8.27775 67.6964 7.63775C67.6964 6.99775 67.9164 6.47775 68.3564 6.07775C68.8164 5.65775 69.3964 5.44775 70.0964 5.44775C70.7964 5.44775 71.3664 5.65775 71.8064 6.07775C72.2664 6.47775 72.4964 6.99775 72.4964 7.63775C72.4964 8.27775 72.2664 8.80775 71.8064 9.22775C71.3664 9.64775 70.7964 9.85775 70.0964 9.85775ZM68.1764 27.0478V12.1678H72.0164V27.0478H68.1764Z" fill="#EB662B"/>
<path d="M81.1545 27.4078C79.8745 27.4078 78.8245 27.2078 78.0045 26.8078C77.1845 26.3878 76.5745 25.8378 76.1745 25.1578C75.7745 24.4778 75.5745 23.7278 75.5745 22.9078C75.5745 21.5278 76.1145 20.4078 77.1945 19.5478C78.2745 18.6878 79.8945 18.2578 82.0545 18.2578H85.8345V17.8978C85.8345 16.8778 85.5445 16.1278 84.9645 15.6478C84.3845 15.1678 83.6645 14.9278 82.8045 14.9278C82.0245 14.9278 81.3445 15.1178 80.7645 15.4978C80.1845 15.8578 79.8245 16.3978 79.6845 17.1178H75.9345C76.0345 16.0378 76.3945 15.0978 77.0145 14.2978C77.6545 13.4978 78.4745 12.8878 79.4745 12.4678C80.4745 12.0278 81.5945 11.8078 82.8345 11.8078C84.9545 11.8078 86.6245 12.3378 87.8445 13.3978C89.0645 14.4578 89.6745 15.9578 89.6745 17.8978V27.0478H86.4045L86.0445 24.6478C85.6045 25.4478 84.9845 26.1078 84.1845 26.6278C83.4045 27.1478 82.3945 27.4078 81.1545 27.4078ZM82.0245 24.4078C83.1245 24.4078 83.9745 24.0478 84.5745 23.3278C85.1945 22.6078 85.5845 21.7178 85.7445 20.6578H82.4745C81.4545 20.6578 80.7245 20.8478 80.2845 21.2278C79.8445 21.5878 79.6245 22.0378 79.6245 22.5778C79.6245 23.1578 79.8445 23.6078 80.2845 23.9278C80.7245 24.2478 81.3045 24.4078 82.0245 24.4078Z" fill="#EB662B"/>
<path d="M99.7639 27.0478C98.2038 27.0478 96.9538 26.6678 96.0139 25.9078C95.0739 25.1478 94.6039 23.7978 94.6039 21.8578V15.3778H92.0538V12.1678H94.6039L95.0538 8.17775H98.4439V12.1678H102.464V15.3778H98.4439V21.8878C98.4439 22.6078 98.5938 23.1078 98.8938 23.3878C99.2138 23.6478 99.7538 23.7778 100.514 23.7778H102.374V27.0478H99.7639Z" fill="#EB662B"/>
<path d="M112.52 27.4078C111.08 27.4078 109.78 27.0778 108.62 26.4178C107.48 25.7578 106.57 24.8478 105.89 23.6878C105.23 22.5078 104.9 21.1478 104.9 19.6078C104.9 18.0678 105.24 16.7178 105.92 15.5578C106.6 14.3778 107.51 13.4578 108.65 12.7978C109.81 12.1378 111.11 11.8078 112.55 11.8078C113.97 11.8078 115.25 12.1378 116.39 12.7978C117.55 13.4578 118.46 14.3778 119.12 15.5578C119.8 16.7178 120.14 18.0678 120.14 19.6078C120.14 21.1478 119.8 22.5078 119.12 23.6878C118.46 24.8478 117.55 25.7578 116.39 26.4178C115.23 27.0778 113.94 27.4078 112.52 27.4078ZM112.52 24.0778C113.52 24.0778 114.39 23.7078 115.13 22.9678C115.87 22.2078 116.24 21.0878 116.24 19.6078C116.24 18.1278 115.87 17.0178 115.13 16.2778C114.39 15.5178 113.53 15.1378 112.55 15.1378C111.53 15.1378 110.65 15.5178 109.91 16.2778C109.19 17.0178 108.83 18.1278 108.83 19.6078C108.83 21.0878 109.19 22.2078 109.91 22.9678C110.65 23.7078 111.52 24.0778 112.52 24.0778Z" fill="#EB662B"/>
<path d="M129.153 27.4078C127.293 27.4078 125.853 26.8278 124.833 25.6678C123.833 24.5078 123.333 22.8078 123.333 20.5678V12.1678H127.143V20.2078C127.143 21.4878 127.403 22.4678 127.923 23.1478C128.443 23.8278 129.263 24.1678 130.383 24.1678C131.443 24.1678 132.313 23.7878 132.993 23.0278C133.693 22.2678 134.043 21.2078 134.043 19.8478V12.1678H137.883V27.0478H134.493L134.193 24.5278C133.733 25.4078 133.063 26.1078 132.183 26.6278C131.323 27.1478 130.313 27.4078 129.153 27.4078Z" fill="#EB662B"/>
<path d="M141.825 27.0478V12.1678H145.245L145.605 14.9578C146.145 13.9978 146.875 13.2378 147.795 12.6778C148.735 12.0978 149.835 11.8078 151.095 11.8078V15.8578H150.015C149.175 15.8578 148.425 15.9878 147.765 16.2478C147.105 16.5078 146.585 16.9578 146.205 17.5978C145.845 18.2378 145.665 19.1278 145.665 20.2678V27.0478H141.825Z" fill="#EB662B"/>
<path d="M159.87 27.4078C158.55 27.4078 157.39 27.1978 156.39 26.7778C155.39 26.3378 154.59 25.7378 153.99 24.9778C153.39 24.2178 153.03 23.3378 152.91 22.3378H156.78C156.9 22.9178 157.22 23.4178 157.74 23.8378C158.28 24.2378 158.97 24.4378 159.81 24.4378C160.65 24.4378 161.26 24.2678 161.64 23.9278C162.04 23.5878 162.24 23.1978 162.24 22.7578C162.24 22.1178 161.96 21.6878 161.4 21.4678C160.84 21.2278 160.06 20.9978 159.06 20.7778C158.42 20.6378 157.77 20.4678 157.11 20.2678C156.45 20.0678 155.84 19.8178 155.28 19.5178C154.74 19.1978 154.3 18.7978 153.96 18.3178C153.62 17.8178 153.45 17.2078 153.45 16.4878C153.45 15.1678 153.97 14.0578 155.01 13.1578C156.07 12.2578 157.55 11.8078 159.45 11.8078C161.21 11.8078 162.61 12.2178 163.65 13.0378C164.71 13.8578 165.34 14.9878 165.54 16.4278H161.91C161.69 15.3278 160.86 14.7778 159.42 14.7778C158.7 14.7778 158.14 14.9178 157.74 15.1978C157.36 15.4778 157.17 15.8278 157.17 16.2478C157.17 16.6878 157.46 17.0378 158.04 17.2978C158.62 17.5578 159.39 17.7978 160.35 18.0178C161.39 18.2578 162.34 18.5278 163.2 18.8278C164.08 19.1078 164.78 19.5378 165.3 20.1178C165.82 20.6778 166.08 21.4878 166.08 22.5478C166.1 23.4678 165.86 24.2978 165.36 25.0378C164.86 25.7778 164.14 26.3578 163.2 26.7778C162.26 27.1978 161.15 27.4078 159.87 27.4078Z" fill="#EB662B"/>
<path d="M39.9246 6.90198C38.6506 6.97877 37.3919 7.21981 36.1796 7.61911C34.9471 7.96503 33.7473 8.41829 32.594 8.97369C31.4296 9.4727 30.3322 10.1151 29.327 10.886C28.3008 11.5949 27.3408 12.3949 26.4585 13.2765C25.5696 14.2024 24.7443 15.1873 23.9884 16.2247C23.2751 17.2675 22.6361 18.3591 22.076 19.4916C21.5552 20.6595 21.1029 21.8568 20.7215 23.0773C20.4058 24.3097 20.1663 25.5604 20.0043 26.8223C19.9199 25.5492 19.6791 24.2914 19.2872 23.0773C18.9413 21.8448 18.488 20.645 17.9326 19.4916C17.4336 18.3273 16.7912 17.2298 16.0203 16.2247C15.2919 15.1884 14.4932 14.2033 13.6298 13.2765C12.703 12.4131 11.7179 11.6144 10.6816 10.886C9.67647 10.1151 8.579 9.4727 7.41468 8.97369C6.27257 8.39246 5.07016 7.93822 3.82902 7.61911C2.61677 7.21981 1.35801 6.97877 0.0840036 6.90198C0.0840036 7.61911 0.0043223 8.33624 0.0043223 9.05337C-0.0264515 10.5245 0.107179 11.9944 0.402729 13.4358C0.551182 14.1622 0.737357 14.8803 0.960498 15.5872C1.12782 16.3006 1.36813 16.9948 1.67763 17.659C1.93625 18.3372 2.22878 19.0021 2.55412 19.651L3.66966 21.5633L5.02424 23.3163L6.45851 24.9099L8.05213 26.4239L9.80512 27.6988C10.4426 28.1769 11.08 28.4956 11.7175 28.894L13.7095 29.8502L15.7015 30.5673L17.8529 31.1251L20.0043 31.4438L22.1557 31.1251L24.3071 30.5673L26.3788 29.8502L28.3709 28.894L30.2035 27.6988L31.9565 26.4239C32.5257 25.9608 33.0584 25.4546 33.5501 24.9099C34.0948 24.4182 34.6009 23.8855 35.0641 23.3163L36.339 21.5633C36.7374 20.9259 37.1358 20.2884 37.4545 19.651L38.4107 17.659L39.1278 15.5872C39.3251 14.8791 39.4847 14.1609 39.6059 13.4358C39.7511 12.725 39.8575 12.0068 39.9246 11.2844C40.0321 10.5459 40.0588 9.79775 40.0043 9.05337C40.0175 8.33532 39.9909 7.61709 39.9246 6.90198Z" fill="url(#paint0_linear_4_38)"/>
<path d="M25.0244 5.54736C25.0405 5.8946 25.0138 6.24252 24.9447 6.58321C24.875 6.93869 24.7681 7.28588 24.626 7.61907L24.1479 8.49556L23.5104 9.29237L22.7136 9.92982L21.7574 10.4079L20.8013 10.7266H18.7295L17.6937 10.4079L16.8172 9.92982L16.0204 9.29237L15.3033 8.49556L14.8252 7.61907L14.5064 6.58321C14.5064 6.26449 14.4268 5.94576 14.4268 5.54736C14.4268 5.14895 14.5064 4.90991 14.5064 4.59118C14.5064 4.27246 14.7455 3.87405 14.8252 3.55532L15.3033 2.67883L16.0204 1.88202C16.249 1.62708 16.5183 1.41169 16.8172 1.24457L17.6937 0.766479L18.7295 0.447754H20.8013L21.7574 0.766479L22.7136 1.24457L23.5104 1.88202L24.1479 2.67883L24.626 3.55532C24.7789 3.88448 24.8861 4.23299 24.9447 4.59118C25.0105 4.90542 25.0372 5.22657 25.0244 5.54736Z" fill="#EB662B"/>
<defs>
<linearGradient id="paint0_linear_4_38" x1="6.50516" y1="10.5831" x2="23.3076" y2="35.6689" gradientUnits="userSpaceOnUse">
<stop stop-color="#EB662B"/>
<stop offset="1" stop-color="#F28555"/>
</linearGradient>
</defs>
</svg> -->

<svg version="1.1" xmlns="http://www.w3.org/2000/svg" width="2120" height="1118">
<path d="M0 0 C5.55047467 4.67223501 9.00133751 10.49425089 10.28125 17.64453125 C11.29443215 29.71225438 9.2417549 42.90969236 1.30859375 52.4453125 C-18.52788454 72.23894742 -54.38838751 72.47604823 -80.65761566 76.50022507 C-90.5204375 78.01209287 -100.37855229 79.55425742 -110.23632812 81.09863281 C-111.28508857 81.26285539 -112.33384902 81.42707798 -113.41439009 81.596277 C-139.98562356 85.76207403 -166.51683471 90.16662521 -193.046875 94.5859375 C-195.51262456 94.9963784 -197.97837878 95.40679139 -200.44413757 95.81717682 C-219.30885648 98.95746329 -238.17205591 102.10683767 -257.03510284 105.25714874 C-348.34237843 120.50583212 -439.65932375 135.65534658 -531.27724922 148.9352476 C-546.91258333 151.20183832 -562.54322039 153.50032951 -578.171875 155.8125 C-578.93183069 155.92491838 -579.69178638 156.03733676 -580.47477102 156.15316176 C-614.31542633 161.16191379 -648.10290662 166.48735603 -681.875 171.9375 C-682.88567118 172.10057451 -682.88567118 172.10057451 -683.91675997 172.26694345 C-699.25746141 174.7425342 -714.59617528 177.23030405 -729.93408203 179.72314453 C-751.5172374 183.23078106 -773.10648387 186.70052914 -794.6960144 190.16867352 C-801.47881487 191.25836451 -808.26131301 192.34990323 -815.04344845 193.44372559 C-820.28531448 194.2890087 -825.52739707 195.13294413 -830.76953125 195.9765625 C-831.81194662 196.14441883 -832.85436199 196.31227516 -833.92836571 196.48521805 C-846.48198099 198.50510271 -859.03980041 200.49613754 -871.60420847 202.44771373 C-902.52938965 207.25125631 -933.42730519 212.17448135 -964.27734375 217.44140625 C-965.04088173 217.57174476 -965.80441971 217.70208326 -966.59109521 217.83637142 C-977.43081368 219.68746148 -988.26880425 221.54858112 -999.10644531 223.41178894 C-1012.28739319 225.67760948 -1025.4690283 227.93939853 -1038.65234375 230.19140625 C-1039.40685169 230.32029968 -1040.16135962 230.4491931 -1040.93873143 230.58199239 C-1062.87785216 234.32803133 -1084.83151411 237.97183733 -1106.81244588 241.46457171 C-1108.75306718 241.77304465 -1110.69355118 242.08238094 -1112.6340313 242.3917408 C-1143.69493825 247.33313431 -1174.85944028 251.74481377 -1206.125 255.1875 C-1207.17840576 255.30407959 -1208.23181152 255.42065918 -1209.31713867 255.54077148 C-1226.47780987 257.30479114 -1244.33378181 256.42526252 -1258.61328125 245.65625 C-1265.5011247 239.40261912 -1269.15687286 231.02377399 -1269.703125 221.83203125 C-1269.83789527 210.99425515 -1268.86765922 200.79648469 -1261.5 192.25 C-1252.76549879 184.6425312 -1241.59120081 181.90667885 -1230.40109253 180.22929382 C-1229.36751551 180.06577759 -1228.33393848 179.90226137 -1227.26904094 179.7337901 C-1224.01474717 179.22441924 -1220.75819326 178.73376087 -1217.5 178.25 C-1216.47492293 178.09749165 -1215.44984586 177.9449833 -1214.39370584 177.78785348 C-1208.08848015 176.85675337 -1201.77908776 175.95626993 -1195.46849799 175.06235826 C-1167.8400147 171.13706971 -1140.30014508 166.73548677 -1112.76657486 162.19822121 C-1100.04214741 160.10184561 -1087.31439053 158.02579089 -1074.58649799 155.95057409 C-1072.50153979 155.61061321 -1070.41660391 155.27051564 -1068.33166814 154.93041718 C-1038.76065616 150.10793786 -1009.16950074 145.41589663 -979.5703125 140.76953125 C-978.33210282 140.5751098 -977.09389315 140.38068835 -975.81816196 140.18037534 C-960.43558524 137.76526688 -945.05217445 135.35550066 -929.66841722 132.94792455 C-915.78404818 130.77488096 -901.90038473 128.59734216 -888.01675177 126.41960156 C-880.77504124 125.28369105 -873.5333057 124.14794006 -866.29156494 123.01222229 C-865.56927961 122.89894556 -864.84699427 122.78566882 -864.1028215 122.66895946 C-853.10509105 120.94419655 -842.10724067 119.22019985 -831.10931396 117.49668884 C-829.64058801 117.26651913 -828.17186209 117.03634922 -826.70313621 116.80617911 C-825.61267109 116.63528792 -825.61267109 116.63528792 -824.50017639 116.4609444 C-786.86089594 110.56233013 -749.2229685 104.65513695 -711.5859375 98.7421875 C-710.21121623 98.52621483 -708.83649494 98.31024225 -707.46177363 98.09426975 C-695.14494179 96.15925264 -682.82812961 94.22411038 -670.51134396 92.28879929 C-652.77145274 89.5013682 -635.03149272 86.71437554 -617.29147089 83.92777586 C-550.15023271 73.38123978 -483.00987933 62.82908324 -415.87017822 52.27276611 C-336.711963 39.82679469 -257.55310075 27.38494775 -178.392766 14.9524641 C-177.36138613 14.79048127 -177.36138613 14.79048127 -176.3091703 14.62522605 C-173.54318154 14.1908155 -170.77719278 13.75640497 -168.01120364 13.32199688 C-157.78539861 11.71599458 -147.55963426 10.10973354 -137.33389282 8.50332642 C-125.81112505 6.69316602 -114.28830102 4.88336411 -102.76540548 3.07401717 C-96.87351756 2.148855 -90.98165353 1.22354141 -85.08985329 0.29782104 C-79.67963516 -0.55222555 -74.2693464 -1.40182104 -68.85900056 -2.25105441 C-66.89776129 -2.55897988 -64.9365478 -2.8670696 -62.97536242 -3.17533815 C-60.31300087 -3.59379538 -57.6505464 -4.01165642 -54.98806763 -4.42936707 C-54.22308986 -4.54974823 -53.45811208 -4.67012938 -52.66995317 -4.79415846 C-35.30986792 -7.51471494 -15.41274374 -10.40786754 0 0 Z " fill="#32006e" transform="translate(1508.5,771.75)"/>
<path d="M0 0 C0.79893173 -0.00559937 1.59786346 -0.01119873 2.42100525 -0.01696777 C4.93192002 -0.02858042 7.44221406 -0.02274941 9.953125 -0.01171875 C10.82264801 -0.00989594 11.69217102 -0.00807312 12.58804321 -0.00619507 C26.3107324 0.04204514 39.70541555 0.63378926 53.203125 3.30078125 C54.06776367 3.46707031 54.93240234 3.63335937 55.82324219 3.8046875 C82.04231136 9.01569131 106.82039693 19.14815289 128.203125 35.30078125 C129.07453125 35.94917969 129.9459375 36.59757812 130.84375 37.265625 C167.87841341 66.15044482 189.0651737 108.08110182 194.83251953 154.29956055 C195.56940101 161.48965325 195.55132061 168.70543819 195.515625 175.92578125 C195.51346985 176.71447601 195.5113147 177.50317078 195.50909424 178.31576538 C195.45430719 190.84854078 194.89201561 203.01837345 192.203125 215.30078125 C191.90510986 216.67266602 191.90510986 216.67266602 191.60107422 218.07226562 C183.48232559 254.19613595 166.19441949 287.06016919 140.61523438 313.82128906 C139.6787794 314.80242965 138.74770269 315.78873372 137.82226562 316.78027344 C124.86869703 330.6382167 109.39001604 341.52367722 93.203125 351.30078125 C92.31222168 351.83928711 92.31222168 351.83928711 91.40332031 352.38867188 C36.65253385 384.83588017 -37.1441055 391.51490902 -98.796875 400.42578125 C-100.27294724 400.64249481 -100.27294724 400.64249481 -101.77883911 400.86358643 C-145.84295253 407.27469022 -145.84295253 407.27469022 -158.08203125 398.71484375 C-166.99168512 391.36793099 -168.44291578 382.31875347 -169.61371994 371.40353012 C-170.15559506 365.18242277 -170.01458879 358.93287789 -169.95703125 352.6953125 C-169.95035992 351.08777257 -169.94477333 349.48022784 -169.94017029 347.87268066 C-169.92885396 344.42765682 -169.91198233 340.98272634 -169.890625 337.53775024 C-169.8334516 328.1046876 -169.81776832 318.67148683 -169.80078125 309.23828125 C-169.79873814 308.25695032 -169.79669502 307.27561939 -169.79459 306.26455116 C-169.75376227 284.99739077 -169.98675387 263.7363944 -170.26039505 242.47132874 C-170.66144868 211.05049865 -170.90866195 179.63307689 -170.92025757 148.20956039 C-170.92183868 145.42718879 -170.92536227 142.64482622 -170.92944336 139.86245728 C-170.9537366 121.24442625 -170.84175918 102.63945955 -170.34375 84.02734375 C-170.323801 83.26498476 -170.30385201 82.50262577 -170.28329849 81.71716499 C-169.15885687 39.88399124 -169.15885687 39.88399124 -161.921875 30.92578125 C-161.45007812 30.31992187 -160.97828125 29.7140625 -160.4921875 29.08984375 C-152.69893873 20.86563191 -142.95877211 18.25997904 -132.1484375 16.52734375 C-131.1370723 16.36227325 -130.12570709 16.19720276 -129.08369446 16.02713013 C-111.43823996 13.2193558 -93.70779819 10.94822106 -75.99938965 8.57995605 C-71.97460535 8.04041758 -67.95048297 7.49603083 -63.92635632 6.95161247 C-59.98759255 6.41928638 -56.04846166 5.88971805 -52.10921669 5.36096573 C-50.25758186 5.1121758 -48.40604421 4.86266115 -46.55461693 4.61233139 C-12.29481612 -0.01336861 -12.29481612 -0.01336861 0 0 Z M-71.61328125 88.33984375 C-73.1098526 88.6131678 -73.1098526 88.6131678 -74.63665771 88.89201355 C-75.55134827 89.06251724 -76.46603882 89.23302094 -77.40844727 89.40869141 C-78.21081314 89.55730621 -79.01317902 89.70592102 -79.83985901 89.85903931 C-81.86133257 90.23330128 -81.86133257 90.23330128 -83.796875 91.30078125 C-83.97356136 107.88401773 -84.13934065 124.46735176 -84.296875 141.05078125 C-84.30875225 142.30046062 -84.3206295 143.55014 -84.33286667 144.83768845 C-84.71157637 185.01368488 -84.88837394 225.18524885 -84.859375 265.36328125 C-84.85851898 266.55799545 -84.85766296 267.75270966 -84.85678101 268.98362732 C-84.84564395 283.42269487 -84.82596802 297.86173896 -84.796875 312.30078125 C-82.27674123 312.31886944 -79.7567403 312.33196147 -77.23657227 312.34228516 C-76.18030514 312.35063133 -76.18030514 312.35063133 -75.10269928 312.35914612 C-68.22950713 312.38018284 -61.53639338 311.64610135 -54.734375 310.67578125 C-53.4548999 310.49756836 -52.1754248 310.31935547 -50.85717773 310.13574219 C-10.2974767 304.35946686 35.92905218 297.32001119 68.203125 270.30078125 C68.71762207 269.8728125 69.23211914 269.44484375 69.76220703 269.00390625 C89.52987219 252.34160264 103.84309688 229.33442575 110.203125 204.30078125 C110.39003906 203.56923828 110.57695313 202.83769531 110.76953125 202.08398438 C116.77188973 175.82366602 111.43193998 148.95786359 98.265625 125.92578125 C83.94531675 103.35245325 62.89468806 87.3298455 36.921875 81.078125 C0.73215918 73.51325793 -35.91589416 81.76357942 -71.61328125 88.33984375 Z " fill="#32006e" transform="translate(1238.796875,340.69921875)"/>
<path d="M0 0 C17.75639499 15.54529568 31.69481545 35.56412884 33.79296875 59.60546875 C34.19708798 69.69808741 31.68580994 78.58599434 24.8203125 86.09765625 C14.45850173 95.79524838 1.77228138 96.96970451 -11.734375 96.65625 C-25.242267 96.07084976 -35.75335227 88.29286244 -44.72265625 78.609375 C-45.85034425 77.31561418 -46.97110799 76.01579476 -48.0859375 74.7109375 C-61.22276658 59.35857178 -75.00888472 45.99775495 -96.0546875 43.41015625 C-120.04345934 41.76923049 -141.15118462 47.24250072 -159.84765625 62.72265625 C-172.73394382 74.86973043 -180.90529261 90.6941331 -182.29296875 108.4609375 C-182.71222684 126.88622714 -177.2115303 145.21609483 -164.6171875 158.97265625 C-142.0637367 182.34078273 -110.82748592 187.36478163 -80.37852478 193.84561157 C-45.90777535 201.18521747 -12.21395829 209.37508553 13.9453125 234.41015625 C14.69425781 235.08433594 15.44320313 235.75851562 16.21484375 236.453125 C40.27851711 258.91536301 51.03927662 294.75071844 52.16796875 326.78515625 C53.11652675 369.57688691 40.33290242 410.4726338 10.7734375 441.89453125 C-21.9785923 475.93012008 -67.29329641 495.28838935 -114.53515625 496.61328125 C-141.67368905 496.98481505 -167.97925735 493.00968881 -193.0546875 482.41015625 C-193.73063965 482.12833496 -194.4065918 481.84651367 -195.10302734 481.55615234 C-212.01716195 474.39424031 -227.13469525 464.48916379 -240.0546875 451.41015625 C-240.78945312 450.68570312 -241.52421875 449.96125 -242.28125 449.21484375 C-253.50988265 437.46596557 -260.46746279 422.29848994 -260.19921875 405.984375 C-259.68405102 396.80882003 -256.58948654 388.95362603 -250.01171875 382.36328125 C-238.92399946 373.1791173 -226.08290882 371.2206885 -212.0546875 372.41015625 C-199.0571421 374.80524384 -189.98261014 383.54354302 -180.31689453 391.9050293 C-157.35185836 411.72138042 -136.13567682 418.48593606 -106.0546875 416.41015625 C-85.0805673 414.06304362 -67.01268935 404.09709052 -52.0546875 389.41015625 C-51.28253906 388.6625 -50.51039063 387.91484375 -49.71484375 387.14453125 C-36.47068645 373.47022183 -30.38321117 356.11448721 -30.58374023 337.23779297 C-31.12374604 321.40430704 -36.56768087 306.14473531 -47.6484375 294.53125 C-65.65415346 278.6593283 -89.5109642 274.1361958 -112.265625 269.16015625 C-169.48232019 256.61403073 -169.48232019 256.61403073 -192.0546875 243.41015625 C-193.02220947 242.86222412 -193.02220947 242.86222412 -194.00927734 242.30322266 C-226.18404599 223.96306169 -250.44030804 192.86745877 -261.0546875 157.41015625 C-267.56457587 133.22513635 -269.42310969 104.86535521 -263.0546875 80.41015625 C-262.85601074 79.62608398 -262.65733398 78.84201172 -262.45263672 78.03417969 C-256.52022432 55.21994355 -246.56221957 34.29408813 -231.0546875 16.41015625 C-230.34699219 15.58128906 -229.63929688 14.75242187 -228.91015625 13.8984375 C-173.23704023 -49.76976698 -63.41286944 -54.2246382 0 0 Z " fill="#32006e" transform="translate(266.0546875,413.58984375)"/>
<path d="M0 0 C5.78832303 11.16013671 10.85696611 22.57554054 15.8125 34.125 C16.22251251 35.07818115 16.63252502 36.0313623 17.05496216 37.01342773 C41.04470249 92.82320948 62.43825147 149.61575411 83.71852493 206.4985981 C84.25694381 207.9375158 84.79560633 209.37634235 85.33451462 210.81507683 C88.38296106 218.95396768 91.40857559 227.10045237 94.39331055 235.26293945 C100.07729848 250.78333516 105.89739312 266.09366382 112.9375 281.0625 C133.81218773 325.67043453 133.81218773 325.67043453 127 346 C122.80530764 355.13661738 115.38353502 361.04352136 106.2421875 364.8671875 C92.52496688 369.65995133 77.37757241 373.18931944 63.4609375 367.3125 C50.97404131 360.65282203 45.48148048 347.74164249 40.75 335.0625 C40.04417106 333.22305953 39.3383253 331.38362533 38.63153076 329.54455566 C37.90267806 327.64302478 37.17908172 325.73957255 36.45703125 323.83544922 C34.08600469 317.58645844 31.67618578 311.35278412 29.25 305.125 C28.79423584 303.95412842 28.33847168 302.78325684 27.86889648 301.5769043 C24.985937 294.25959111 21.86910585 287.19922726 18.14453125 280.2734375 C17 278 17 278 17 276 C-9.56865775 277.89856728 -35.71796481 281.7489482 -62 286 C-63.05356689 286.17031738 -64.10713379 286.34063477 -65.19262695 286.51611328 C-74.79728552 288.07056577 -84.40054266 289.63346457 -94.00024414 291.21826172 C-111.16956819 294.05106973 -111.16956819 294.05106973 -119.51171875 295.2890625 C-120.7140918 295.46800049 -121.91646484 295.64693848 -123.15527344 295.83129883 C-125.22653188 296.1349622 -127.29870472 296.43250981 -129.37207031 296.72143555 C-139.80164373 297.82842848 -139.80164373 297.82842848 -148.62036133 302.64111328 C-150.43481342 305.74343784 -151.51923911 308.98017607 -152.6015625 312.38671875 C-152.95788002 313.47502991 -152.95788002 313.47502991 -153.32139587 314.58532715 C-153.83048354 316.14168236 -154.33638243 317.69908358 -154.83938599 319.25741577 C-156.16737811 323.36519981 -157.52498065 327.46320628 -158.87890625 331.5625 C-159.14777145 332.3784111 -159.41663666 333.1943222 -159.69364929 334.03495789 C-176.51455293 385.02383399 -176.51455293 385.02383399 -190 404 C-190.46277344 404.69738281 -190.92554688 405.39476562 -191.40234375 406.11328125 C-197.2868922 414.07874248 -207.53233197 417.53361101 -217 419 C-220.31873094 419.27681074 -223.60829328 419.33488015 -226.9375 419.3125 C-227.81704346 419.30686035 -228.69658691 419.3012207 -229.6027832 419.29541016 C-239.9439784 419.10161468 -247.9806979 416.7831251 -256 410 C-263.63727436 401.7293907 -263.6034767 392.30412308 -263.359375 381.6171875 C-262.43686925 362.48493796 -253.34229087 344.34718215 -246.13699341 326.91168213 C-239.93789332 311.90728122 -234.56908991 296.63491311 -229.26991272 281.29556656 C-227.32529223 275.67246913 -225.36859511 270.0535492 -223.41453934 264.43372536 C-222.67712301 262.3124535 -221.94026232 260.19098922 -221.20346069 258.06950378 C-216.93963665 245.79791244 -212.6047935 233.55208836 -208.25 221.3125 C-202.41601861 204.9035941 -196.68031014 188.46270983 -191 172 C-184.60558572 153.46850674 -178.1332345 134.96704233 -171.55493164 116.5 C-167.80342473 105.96066887 -164.09286986 95.40855613 -160.44228363 84.83382225 C-159.10251804 80.95622576 -157.75718613 77.08055519 -156.41222382 73.20475864 C-155.32803501 70.0782655 -154.24930853 66.95011964 -153.17779541 63.81924438 C-145.45207783 41.25048088 -145.45207783 41.25048088 -140.72265625 31.71875 C-140.41927841 31.10721069 -140.11590057 30.49567139 -139.80332947 29.86560059 C-135.95485076 22.52209427 -131.71426596 17.90999999 -124 15 C-121.11885891 14.12845923 -118.22852589 13.50306416 -115.2734375 12.9375 C-114.45322113 12.7732251 -113.63300476 12.6089502 -112.78793335 12.43969727 C-103.45101125 10.6180748 -94.04945228 9.2747745 -84.625 8 C-83.70966492 7.87404449 -82.79432983 7.74808899 -81.85125732 7.61831665 C-68.46401383 5.77777665 -55.06077314 4.13109591 -41.625 2.6875 C-40.87003235 2.60636963 -40.1150647 2.52523926 -39.33721924 2.44165039 C-26.21889751 1.04465023 -13.20363364 -0.15907992 0 0 Z M-65 81 C-71.02122378 91.98330078 -76.39291364 103.03052369 -81.125 114.625 C-81.76530352 116.17890557 -82.40568653 117.73277838 -83.04614258 119.28662109 C-92.9179293 143.33641733 -102.20275514 167.61748029 -110.875 192.125 C-111.13252045 192.85100403 -111.39004089 193.57700806 -111.65536499 194.32501221 C-112.37638624 196.36354043 -113.0918374 198.40391436 -113.8046875 200.4453125 C-114.20671387 201.59531738 -114.60874023 202.74532227 -115.02294922 203.93017578 C-116.15244269 207.28330928 -116.15244269 207.28330928 -117 212 C-84 207.38 -51 202.76 -17 198 C-15.60733363 193.8220009 -16.98996225 190.74663883 -18.25 186.6875 C-18.65001221 185.38425781 -18.65001221 185.38425781 -19.05810547 184.0546875 C-34.43352089 126.79860994 -34.43352089 126.79860994 -65 81 Z " fill="#32006e" transform="translate(907,396)"/>
<path d="M0 0 C5.39849879 5.63375447 6.353336 11.12391405 6.3828125 18.69384766 C5.84053937 42.7063795 -11.2061502 66.0245713 -23.6875 85.4375 C-29.41425926 94.34674227 -34.78545209 103.41816094 -40.03735352 112.61401367 C-45.14337228 121.54741873 -50.36269431 130.40799569 -55.625 139.25 C-56.43880036 140.61950019 -57.25252161 141.9890474 -58.06616211 143.35864258 C-61.64531679 149.38034595 -65.2344435 155.3955232 -68.8515625 161.39453125 C-83.69285989 183.84244564 -83.69285989 183.84244564 -86.41796875 209.390625 C-81.50433962 224.73730228 -69.77163206 238.1161349 -60.51611328 251.078125 C-50.54465301 265.0703884 -41.0523145 279.37173997 -31.55859375 293.69018555 C-25.79437971 302.37404243 -19.9626208 310.97638818 -13.875 319.4375 C-3.06802333 334.57858355 4.78999845 349.92725792 3 369 C1.33977791 376.75814474 -2.73567528 382.23255156 -9 387 C-22.46267627 395.49361979 -38.39259598 398.101234 -54.0234375 395.49609375 C-65.0940583 392.515542 -73.14181361 385.54465198 -79.3203125 376.08203125 C-83.0960559 370.35375112 -86.92410181 364.66346598 -90.7734375 358.984375 C-92.02357233 357.13680997 -93.27356979 355.28915199 -94.5234375 353.44140625 C-96.44586336 350.59979304 -98.36907765 347.7587314 -100.29492188 344.91943359 C-107.32262581 334.55590806 -114.26709611 324.16975397 -120.82006836 313.49829102 C-123.95853229 308.40874348 -127.32519074 303.46958723 -130.66015625 298.5078125 C-133.86321594 293.72889484 -136.94093846 288.87221391 -140 284 C-144.25836575 288.75874925 -146.97287125 294.26985269 -149.9375 299.875 C-154.29307079 308.02040317 -158.72726218 316.10671597 -163.3125 324.125 C-168.37376032 332.99900947 -173.21836505 341.97372415 -178 351 C-184.78295054 363.79392355 -191.75483721 376.4604711 -199 389 C-199.52078125 389.91056152 -200.0415625 390.82112305 -200.578125 391.75927734 C-216.37607796 419.31282339 -216.37607796 419.31282339 -234.4609375 424.73828125 C-246.39928083 427.65345811 -260.39992807 427.32022393 -271.49609375 421.74609375 C-279.37886341 416.86754996 -285.33881635 410.77207826 -287.5625 401.61328125 C-291.81080881 376.23722238 -274.86467197 351.24976397 -262.34375 330.57421875 C-256.92254777 321.60728301 -251.89439861 312.4148388 -246.80908203 303.25488281 C-244.98122558 299.96622124 -243.14570822 296.68193506 -241.30859375 293.3984375 C-234.28382479 280.82364193 -227.40677773 268.18199382 -220.65380859 255.45922852 C-215.57848444 245.95252449 -210.23785466 236.61890232 -204.74609375 227.34741211 C-204.153125 226.33815674 -203.56015625 225.32890137 -202.94921875 224.2890625 C-202.42674561 223.40943848 -201.90427246 222.52981445 -201.3659668 221.62353516 C-199.1060165 217.28297647 -197.7063178 213.09096353 -197.625 208.1875 C-197.59664062 207.41792969 -197.56828125 206.64835938 -197.5390625 205.85546875 C-198.76777034 198.24372779 -203.21153152 191.74644583 -207.5 185.5 C-208.02408447 184.72591797 -208.54816895 183.95183594 -209.08813477 183.15429688 C-216.18362358 172.71719846 -223.49993943 162.43831091 -230.90722656 152.22094727 C-237.41636573 143.24159939 -243.79460721 134.19197435 -250 125 C-250.68819824 123.98131836 -251.37639648 122.96263672 -252.08544922 121.91308594 C-284.61406552 73.7034545 -284.61406552 73.7034545 -282.4375 59.125 C-279.85678329 48.05508357 -272.7027308 40.19277203 -263.24609375 34.27734375 C-250.08552383 27.14505086 -236.71941118 25.36065274 -222.3046875 28.97265625 C-198.00266358 36.52754076 -186.50215134 62.84616032 -174.60693359 83.24511719 C-165.90001413 98.17202076 -157.19552942 112.7707148 -146 126 C-137.72016907 118.49640322 -131.99488692 108.75685763 -126.8203125 98.96484375 C-125.99528732 97.42279518 -125.99528732 97.42279518 -125.15359497 95.84959412 C-118.21189278 82.77886268 -111.71622335 69.47906087 -105.22412109 56.1809082 C-80.10746887 4.81404665 -80.10746887 4.81404665 -60.55859375 -2.2421875 C-41.63935706 -7.6476837 -17.33237104 -11.77003211 0 0 Z " fill="#32006e" transform="translate(2114,205)"/>
<path d="M0 0 C6.83957086 8.92943973 7.40373528 18.97087523 7.34765625 29.8046875 C7.34553383 31.35677414 7.34553383 31.35677414 7.34336853 32.94021606 C7.33779039 36.23100732 7.32524188 39.52172946 7.3125 42.8125 C7.30748218 45.04947818 7.30291976 47.28645743 7.29882812 49.5234375 C7.28782812 54.99481585 7.27070628 60.4661508 7.25 65.9375 C-0.57724622 67.7895975 -8.46268224 69.09633019 -16.40185547 70.36767578 C-17.86631302 70.60419844 -19.33073362 70.84094997 -20.79512024 71.07791138 C-24.74674393 71.71662436 -28.69889988 72.35198366 -32.65118551 72.98658609 C-36.79401899 73.65223844 -40.93641976 74.32057374 -45.07888794 74.98849487 C-52.0268958 76.10832966 -58.97525624 77.22595583 -65.92382812 78.34228516 C-73.9593359 79.63326765 -81.99425353 80.92787432 -90.02887237 82.2243768 C-97.76579971 83.47274787 -105.50315161 84.71846826 -113.24069595 85.96300888 C-116.53184292 86.49242571 -119.82283448 87.02279397 -123.11370468 87.55392838 C-126.98262874 88.17824329 -130.85191726 88.80024771 -134.7215023 89.42045212 C-136.14265746 89.64861561 -137.56368367 89.87758396 -138.98457146 90.10740662 C-140.92042469 90.42038797 -142.85679053 90.73019387 -144.79318237 91.03982544 C-145.87750486 91.21421206 -146.96182735 91.38859867 -148.0790081 91.56826973 C-150.75 91.9375 -150.75 91.9375 -153.75 91.9375 C-153.75 114.7075 -153.75 137.4775 -153.75 160.9375 C-127.56600361 157.2612369 -101.42571485 153.52241 -75.34838867 149.15991211 C-74.49621262 149.01797928 -73.64403656 148.87604645 -72.76603699 148.72981262 C-71.20167576 148.46871767 -69.63767793 148.2054293 -68.07417297 147.93925476 C-35.90360111 142.55827417 -35.90360111 142.55827417 -23.51171875 150.34375 C-17.30030428 155.15844787 -14.81979083 161.04392979 -13.171875 168.58203125 C-11.49943566 181.88411823 -10.61045412 197.40968283 -18.73828125 208.69921875 C-23.1188349 213.88173905 -27.70368927 217.87293155 -33.75 220.9375 C-34.37777344 221.28167969 -35.00554687 221.62585938 -35.65234375 221.98046875 C-53.05719574 230.69959806 -74.78508731 230.99106195 -93.76171875 232.6484375 C-111.91219016 234.21000898 -111.91219016 234.21000898 -129.9375 236.8125 C-131.16291504 237.01830688 -131.16291504 237.01830688 -132.41308594 237.22827148 C-139.76304546 238.62241132 -145.47026231 241.13760089 -152.75 243.9375 C-153.08 266.3775 -153.41 288.8175 -153.75 311.9375 C-144.13875 310.41125 -134.5275 308.885 -124.625 307.3125 C-115.11108398 305.8059082 -115.11108398 305.8059082 -111.08912659 305.16923523 C-100.44233739 303.48328112 -89.79688651 301.79154596 -79.16015625 300.04296875 C-64.86582406 297.70136996 -50.60059097 295.53574277 -36.1875 294.0625 C-35.00986084 293.94205322 -33.83222168 293.82160645 -32.61889648 293.69750977 C-10.37542758 291.62209671 -10.37542758 291.62209671 -2.75 294.9375 C4.10065669 302.40242529 2.56890998 315.40567868 2.51074219 324.96533203 C2.49997683 327.06702263 2.5107268 329.16786561 2.5234375 331.26953125 C2.5360708 343.35968995 1.98424227 354.73113652 -6.75 363.9375 C-16.31339186 371.84092488 -29.39142013 374.04082712 -41.2578125 376.1171875 C-42.44321625 376.32644867 -43.62862 376.53570984 -44.84994507 376.75131226 C-63.15193908 379.93060654 -81.51875446 382.72652176 -99.87695312 385.55859375 C-104.21316323 386.22765376 -108.54874678 386.90056328 -112.88378906 387.57714844 C-209.01521284 402.57921773 -209.01521284 402.57921773 -226.6640625 392.46484375 C-233.37567809 387.55053346 -236.16529187 381.08082792 -237.4760437 373.01332092 C-240.04215574 353.56938375 -238.7054989 333.36844738 -238.39764404 313.80438232 C-238.24409735 303.95194355 -238.12473799 294.09907075 -238.01171875 284.24609375 C-237.99348179 282.65787685 -237.99348179 282.65787685 -237.9748764 281.03757477 C-237.66487211 253.33912222 -237.62949243 225.64016483 -237.62645215 197.94030756 C-237.62580946 193.24369907 -237.62236527 188.54710069 -237.6177063 183.85049438 C-237.59257257 155.79686201 -237.69322369 127.75903146 -238.40060425 99.71310425 C-238.6225255 90.87350389 -238.80209755 82.0374697 -238.82763672 73.19482422 C-238.83205843 72.40421663 -238.83648014 71.61360905 -238.84103584 70.79904366 C-238.83793576 56.23591541 -238.32127708 40.80234773 -227.7890625 29.6875 C-216.09148773 19.64820211 -198.47787605 18.76221296 -183.875 16.5625 C-182.81118103 16.40019897 -181.74736206 16.23789795 -180.65130615 16.07067871 C-155.42421869 12.2261765 -130.14769457 8.71673547 -104.875 5.1875 C-103.86773109 5.04683357 -102.86046219 4.90616714 -101.82266998 4.7612381 C-89.47700833 3.03800448 -77.1297788 1.3264712 -64.78045654 -0.37033081 C-61.53797278 -0.81595191 -58.2958208 -1.26385181 -55.05401611 -1.71438599 C-50.90659281 -2.29071565 -46.75809802 -2.85888312 -42.609375 -3.42578125 C-41.44270294 -3.58894836 -40.27603088 -3.75211548 -39.07400513 -3.92022705 C-10.39674098 -7.79755574 -10.39674098 -7.79755574 0 0 Z " fill="#32006e" transform="translate(597.75,456.0625)"/>
<path d="M0 0 C6.80806057 5.92879076 11.20591142 12.41832379 12.5 21.54296875 C12.94893319 32.03304102 9.13478464 41.15547342 2.1171875 48.84375 C-18.04215377 70.52542139 -60.03415339 71.89027884 -87.35396767 75.85377884 C-95.36118408 77.01704841 -103.36321416 78.21533353 -111.36474609 79.41699219 C-112.23972248 79.54836272 -113.11469887 79.67973324 -114.01618969 79.8150847 C-138.66449571 83.52325367 -163.26698195 87.51880366 -187.87109375 91.5078125 C-189.0748664 91.70289831 -190.27863905 91.89798412 -191.51888967 92.09898162 C-206.7526012 94.56796477 -221.98528288 97.04326132 -237.21756119 99.52106959 C-251.51809329 101.84716159 -265.81955215 104.1675374 -280.12103374 106.48778324 C-286.39227497 107.50523691 -292.66349162 108.52284202 -298.93470764 109.54045105 C-299.62589047 109.65260514 -300.31707329 109.76475924 -301.02920105 109.88031194 C-311.5134011 111.58154056 -321.99745897 113.28364334 -332.48143005 114.98628235 C-366.73596613 120.54926492 -400.99186433 126.10375099 -435.25 131.64453125 C-436.31314053 131.81648317 -437.37628106 131.98843509 -438.47163796 132.16559768 C-451.08511504 134.20566101 -463.69867971 136.24518244 -476.31228679 138.28444177 C-493.71485984 141.09796167 -511.11727456 143.91246073 -528.51969337 146.72693443 C-532.59947118 147.38675073 -536.67925324 148.04654075 -540.75903893 148.70630836 C-570.99484215 153.59595873 -601.22992883 158.49002398 -631.4646557 163.3863253 C-639.89753996 164.75195075 -648.33046271 166.11733832 -656.76341248 167.4825592 C-657.94036916 167.67309854 -659.11732585 167.86363787 -660.32994789 168.05995113 C-666.21847393 169.01324467 -672.10700504 169.96650687 -677.99553967 170.91974735 C-690.55466644 172.95287886 -703.11366232 174.98681553 -715.67249089 177.02178824 C-724.16406277 178.39765385 -732.65578551 179.77258568 -741.1476261 181.14679182 C-746.04158763 181.93879877 -750.93547858 182.73123541 -755.82918358 183.52482605 C-760.32549909 184.25396826 -764.82200905 184.98189911 -769.31867087 185.70890248 C-770.93806488 185.97093543 -772.55738899 186.23340086 -774.17663229 186.49636352 C-826.17820123 194.93978344 -826.17820123 194.93978344 -844.76953125 182.47265625 C-852.52158229 176.49741543 -857.52648856 169.71385389 -859.62890625 160.03515625 C-860.85274385 149.47249634 -857.52949018 140.07935579 -851.3203125 131.65625 C-831.1533493 108.18923827 -788.63006309 107.46970145 -760.0972259 103.33384097 C-728.61871614 98.7635004 -697.19344856 93.8707116 -665.77841662 88.88413785 C-658.34193053 87.70388478 -650.90481808 86.52759817 -643.46769765 85.3513501 C-629.77639601 83.18585184 -616.08554081 81.01754452 -602.3949585 78.84750366 C-583.69349422 75.88323507 -564.99144257 72.92268543 -546.28923249 69.9631263 C-537.54160997 68.57884495 -528.79401097 67.19441504 -520.04641724 65.80995178 C-519.17352312 65.67180169 -518.300629 65.53365159 -517.40128355 65.39131512 C-504.04044342 63.27671716 -490.67971774 61.16139709 -477.31906128 59.04563904 C-475.5246427 58.76148186 -473.73022409 58.47732493 -471.93580544 58.19316822 C-471.0471847 58.05244989 -470.15856396 57.91173156 -469.24301531 57.76674904 C-422.96784249 50.43881523 -376.69137269 43.11911073 -330.4140625 35.8046875 C-328.74263015 35.54050481 -327.07119781 35.276322 -325.39976549 35.01213908 C-310.66035121 32.68246702 -295.9209208 30.35289706 -281.18146706 28.02347469 C-266.31462261 25.67391573 -251.44779124 23.32427426 -236.58104508 20.9740935 C-234.30568303 20.61439877 -232.03031952 20.25471324 -229.75495589 19.89502853 C-223.07563659 18.83915983 -216.39633095 17.78320496 -209.71708525 16.72687076 C-206.10970739 16.15635977 -202.50232028 15.58590729 -198.89492798 15.01548767 C-198.18976793 14.90398278 -197.48460787 14.7924779 -196.75807934 14.67759407 C-187.11672593 13.15315475 -177.47486709 11.6319518 -167.8326038 10.11327884 C-162.00386034 9.1951446 -156.17525263 8.27614959 -150.34667969 7.35693359 C-149.10714358 7.1614752 -147.86760746 6.96601681 -146.59050965 6.76463544 C-131.23539838 4.34173777 -115.88766908 1.87854268 -100.54832911 -0.64225399 C-95.19339151 -1.52062705 -89.83701269 -2.39017787 -84.4806391 -3.25974602 C-80.53994752 -3.90066964 -76.6006555 -4.54825665 -72.66421127 -5.21480751 C-18.57030401 -14.36915327 -18.57030401 -14.36915327 0 0 Z " fill="#32006e" transform="translate(1863.8828125,100.15625)"/>
<path d="M0 0 C10.21718673 13.86618199 8.31162946 41.9854542 6 58.1875 C4.58421882 65.10688126 2.03656497 72.50579542 -3.25 77.375 C-9.84323649 80.69198709 -16.34525623 82.13290022 -23.625 82.9375 C-25.553493 83.17882931 -27.48187625 83.42103714 -29.41015625 83.6640625 C-30.86252686 83.84050293 -30.86252686 83.84050293 -32.34423828 84.02050781 C-36.92276317 84.57907092 -41.49397057 85.17762089 -46.0625 85.8125 C-46.8551123 85.91054932 -47.64772461 86.00859863 -48.46435547 86.10961914 C-55.83907214 87.14607847 -63.43652604 89.35815755 -68.25 95.375 C-69.73251393 98.34002786 -69.38837188 101.00698966 -69.40148926 104.31723022 C-69.40572167 105.04119102 -69.40995408 105.76515182 -69.41431475 106.51105082 C-69.4273939 108.95317 -69.43337965 111.39525642 -69.43945312 113.83740234 C-69.44739641 115.58628539 -69.45578444 117.33516646 -69.46458435 119.08404541 C-69.48271027 122.87293292 -69.49770668 126.66181585 -69.51036072 130.45072556 C-69.53074676 136.52907681 -69.5584128 142.60738221 -69.58703613 148.68569946 C-69.64219923 160.61249874 -69.6899519 172.53932233 -69.73697662 184.46615601 C-69.86913044 217.78873695 -70.01877854 251.11115702 -70.23139954 284.43333244 C-70.24990192 287.35948806 -70.26776424 290.28564704 -70.28552246 293.21180725 C-70.35264483 304.10312361 -70.43695675 314.99408647 -70.54664612 325.88505936 C-70.57911197 329.15483795 -70.60504213 332.42455977 -70.62486267 335.69443893 C-70.64801172 339.46348821 -70.68502495 343.23214649 -70.73287582 347.00096083 C-70.75486846 348.99090591 -70.76297014 350.98098995 -70.77041626 352.97104263 C-71.00023598 368.16609107 -74.91674192 381.93251486 -85.4375 393.3125 C-95.47955168 402.63481419 -107.28933909 405.91634965 -120.6484375 405.6875 C-132.89487216 404.62490263 -141.94229324 398.83062836 -149.7109375 389.58984375 C-154.22283406 383.09683525 -156.37670836 375.41785436 -156.37304783 367.55868816 C-156.37503888 366.61169951 -156.37702993 365.66471086 -156.37908131 364.68902558 C-156.37616847 363.6569247 -156.37325563 362.62482381 -156.37025452 361.56144714 C-156.37110894 360.45869943 -156.37196337 359.35595173 -156.37284368 358.21978742 C-156.37449323 354.51784641 -156.36898565 350.81595052 -156.36352539 347.11401367 C-156.36324338 344.46306252 -156.36335747 341.81211414 -156.3639679 339.16116333 C-156.36449212 333.45031961 -156.3613559 327.73948732 -156.35573006 322.02864647 C-156.34760134 313.77174063 -156.34499843 305.51484032 -156.34374207 297.25793091 C-156.34155371 283.86148531 -156.33489946 270.46504581 -156.32543945 257.06860352 C-156.31625976 244.05558299 -156.30918165 231.04256412 -156.30493164 218.02954102 C-156.30466892 217.22735282 -156.30440619 216.42516463 -156.30413551 215.5986677 C-156.30283047 211.57430572 -156.30156676 207.54994372 -156.30032361 203.52558172 C-156.28995772 170.14205006 -156.27234526 136.75852578 -156.25 103.375 C-157.47986382 103.59188728 -157.47986382 103.59188728 -158.73457336 103.81315613 C-161.83114298 104.3576689 -164.92819826 104.89931186 -168.02558899 105.43913269 C-170.00347959 105.78470433 -171.9808125 106.13346319 -173.95812988 106.4822998 C-196.54733956 110.41225729 -220.62314888 114.39811142 -241.4375 102.5625 C-250.17795679 95.76436694 -254.4638402 87.15362387 -256.25 76.375 C-257.48035936 62.97865297 -257.05855566 50.95923146 -248.375 40.125 C-234.31830744 25.63119262 -212.76386767 23.79463712 -193.84786987 21.26306152 C-184.68346303 20.03605212 -175.52894341 18.73999627 -166.375 17.4375 C-165.39592682 17.29841217 -164.41685364 17.15932434 -163.40811157 17.01602173 C-141.24546267 13.86057708 -119.10995256 10.52447788 -96.97512054 7.18046188 C-94.16627363 6.75623367 -91.35734545 6.33254713 -88.54840088 5.90896606 C-84.03526084 5.22814445 -79.52239165 4.54555421 -75.00974655 3.86145973 C-73.25416324 3.59537291 -71.49853049 3.32961209 -69.74284744 3.06418419 C-60.87221103 1.72192634 -52.00855951 0.3525331 -43.16113281 -1.13574219 C-42.44928141 -1.2545619 -41.73743 -1.37338161 -41.00400734 -1.49580193 C-37.73179097 -2.042256 -34.46203858 -2.59740377 -31.19454956 -3.17178345 C-9.46186259 -6.83356743 -9.46186259 -6.83356743 0 0 Z " fill="#32006e" transform="translate(1640.25,284.625)"/>
<path d="M0 0 C6.35164218 6.35164218 9.20791114 12.87883066 9.5625 21.8125 C9.1599652 33.15666262 4.7771684 41.39647949 -3.078125 49.4609375 C-19.61937498 63.83501836 -41.62983728 66.55367258 -62.4375 70.1875 C-63.78026378 70.42496916 -65.122955 70.66284892 -66.46557617 70.90112305 C-107.71861736 78.21685332 -149.12343202 84.50060904 -190.6076088 90.34210205 C-217.07087319 94.06898222 -243.50732667 97.89265113 -269.875 102.25 C-270.56865284 102.36461452 -271.26230568 102.47922905 -271.9769783 102.59731674 C-293.3241318 106.1298399 -314.64983837 109.79033451 -335.97756374 113.43789327 C-340.37360172 114.189714 -344.76970365 114.94115914 -349.16586816 115.69223964 C-352.89982479 116.33018674 -356.63375235 116.9683039 -360.36767578 117.60644531 C-361.11369372 117.73392977 -361.85971165 117.86141423 -362.62833619 117.99276185 C-370.76146321 119.38277991 -378.89410392 120.77553437 -387.02532959 122.17663574 C-422.18713696 128.23536184 -457.368333 134.03995747 -492.65478516 139.33129883 C-493.69231052 139.48704439 -494.72983589 139.64278996 -495.79880142 139.80325508 C-538.84829092 146.20827414 -538.84829092 146.20827414 -555 134.75 C-562.68517571 128.164721 -566.01962893 119.96710592 -567 110 C-567.67453558 99.56075894 -566.03989588 90.70847663 -559.84375 82.09765625 C-551.18598462 72.24761386 -538.53659393 68.53232521 -526.1031189 66.10653687 C-525.23702983 65.93586114 -524.37094077 65.76518542 -523.47860658 65.58933771 C-512.43841179 63.45368368 -501.33255076 61.72616909 -490.22509766 59.98291016 C-487.78790451 59.59728892 -485.35076832 59.21130758 -482.91368389 58.82499981 C-477.67177634 57.99492016 -472.42948604 57.16732492 -467.18682289 56.34203529 C-459.46253317 55.12607958 -451.73900055 53.90536636 -444.01561425 52.68368719 C-431.17691082 50.65300657 -418.33762006 48.62606381 -405.49795532 46.60147095 C-392.91418333 44.61722692 -380.33063515 42.63157419 -367.74740601 40.64389038 C-366.96680449 40.52058541 -366.18620298 40.39728043 -365.38194687 40.27023894 C-361.43302673 39.64645366 -357.48411109 39.02263991 -353.53519785 38.39881098 C-345.61716317 37.14796852 -337.6990984 35.89731654 -329.78102112 34.64674377 C-328.99702047 34.52291881 -328.21301982 34.39909385 -327.40526157 34.27151661 C-315.5067612 32.39230656 -303.60809532 30.51414683 -291.70933533 28.63658142 C-256.86996919 23.13899872 -222.03185851 17.63366066 -187.19619298 12.11266828 C-179.17731865 10.8417994 -171.15834311 9.5715711 -163.13928223 8.30187988 C-162.0461817 8.12880428 -160.95308116 7.95572868 -159.82685637 7.77740836 C-154.46711931 6.9288045 -149.10736845 6.08028789 -143.74760818 5.2318306 C-133.55529551 3.61828132 -123.36316361 2.0036065 -113.17144775 0.3862915 C-104.66100289 -0.96421112 -96.15017945 -2.31229505 -87.63883549 -3.65712017 C-83.38838497 -4.32878588 -79.13812321 -5.00158747 -74.88837242 -5.67766762 C-71.05372635 -6.28770077 -67.21856961 -6.89440929 -63.38297915 -7.49847531 C-61.36699568 -7.81684523 -59.35157176 -8.13875225 -57.33617592 -8.46082115 C-37.40593092 -11.58852598 -16.64978367 -13.66926684 0 0 Z " fill="#ffffff" transform="translate(919,254)"/>
<path d="M0 0 C7.78864338 7.23989806 9.47821815 15.20358778 9.99609375 25.5390625 C10.0069941 35.19677206 7.29399409 44.04107772 0.90625 51.41796875 C-7.89761747 59.95028836 -17.89870148 63.6974592 -29.58105469 66.42504883 C-30.4960461 66.64024831 -31.41103752 66.85544779 -32.35375595 67.07716846 C-42.46816548 69.40758237 -52.65990653 71.21562646 -62.890625 72.94921875 C-64.91620326 73.29682319 -66.9417769 73.64445455 -68.96734619 73.99211121 C-86.10410085 76.9156336 -103.27995631 79.52798624 -120.48092651 82.04055786 C-166.9425014 88.83550252 -213.30886243 96.23318803 -259.67856264 103.6228528 C-264.27089838 104.35465903 -268.86327874 105.08618514 -273.45565796 105.81771851 C-274.36536777 105.96263176 -275.27507758 106.10754502 -276.21235436 106.25684959 C-285.4078479 107.72164909 -294.60335459 109.186366 -303.79888797 110.65091538 C-306.55464836 111.08983752 -309.3103989 111.5288214 -312.06614876 111.96780968 C-348.19370132 117.72246455 -384.32922205 123.42564804 -420.47083467 129.09130162 C-425.57094948 129.89088148 -430.67087894 130.69163568 -435.77072144 131.49295044 C-442.53225218 132.55530637 -449.29413227 133.61541156 -456.05628586 134.6737957 C-458.50616752 135.0574969 -460.95595149 135.44182245 -463.4056282 135.82682991 C-466.72853711 136.34887098 -470.0518313 136.86838519 -473.37524414 137.38720703 C-474.32922309 137.53762483 -475.28320204 137.68804262 -476.26608944 137.84301853 C-496.21526397 140.94521756 -514.83700323 141.53278629 -532.25 129.8125 C-539.10088608 122.80591196 -542.92724604 114.60711789 -543.375 104.8125 C-543.13041659 94.32418777 -539.2927453 85.48010832 -532 78 C-523.63262992 70.30139742 -514.11098699 65.76582291 -503.03515625 63.46484375 C-501.61699364 63.15751564 -501.61699364 63.15751564 -500.17018127 62.84397888 C-488.32971069 60.34172913 -476.38647144 58.45902616 -464.4375 56.5625 C-462.56837008 56.26551303 -462.56837008 56.26551303 -460.66147995 55.96252632 C-437.84726811 52.34476121 -415.01230683 48.87533749 -392.16758537 45.45613098 C-357.26584577 40.23119321 -322.37560972 34.93372512 -287.49609375 29.5625 C-286.49093208 29.40773343 -285.48577041 29.25296686 -284.4501493 29.09351039 C-271.16047925 27.04715682 -257.87124385 24.99798913 -244.58215332 22.94787598 C-194.93541677 15.28899418 -145.28782904 7.63561359 -95.62773323 0.06375122 C-91.55756278 -0.55684948 -87.48751293 -1.17823172 -83.41757011 -1.80032349 C-78.68235704 -2.52401223 -73.94686819 -3.24586815 -69.21115375 -3.96626854 C-67.48229807 -4.22953771 -65.75353341 -4.49340541 -64.0248692 -4.75792885 C-15.1235438 -12.23813084 -15.1235438 -12.23813084 0 0 Z " fill="#32006e" transform="translate(1127,978)"/>
<path d="M0 0 C7.04380281 6.73511025 8.4516058 16.48319209 8.78713167 25.84131956 C8.83563138 29.17734106 8.8526023 32.51220118 8.85917664 35.84857178 C8.86552574 37.12761485 8.87187485 38.40665793 8.87841636 39.72445989 C8.89579856 43.25926058 8.90713694 46.79405829 8.91742671 50.32888579 C8.92958673 54.14785566 8.947327 57.96680037 8.96429443 61.78575134 C8.99656144 69.26439704 9.02341646 76.74305269 9.04809722 84.22172692 C9.06819497 90.30784988 9.08979226 96.39396565 9.11243629 102.48007965 C9.17654199 119.76280935 9.23643195 137.04554658 9.29111841 154.32830867 C9.29406545 155.25943458 9.29701248 156.1905605 9.30004883 157.14990234 C9.30299856 158.08217578 9.3059483 159.01444921 9.30898742 159.97497335 C9.3569686 175.05709704 9.41505869 190.1391626 9.47774651 205.22123167 C9.5421043 220.7343686 9.59867453 236.24751754 9.64731437 251.76071191 C9.67474803 260.45907025 9.70532511 269.15739039 9.74432945 277.85570526 C9.77750954 285.26781133 9.80339715 292.67990025 9.82018574 300.09206226 C9.82893569 303.86568712 9.84084735 307.63922426 9.86199379 311.41280174 C10.15235508 364.70330554 10.15235508 364.70330554 -4.0546875 379.9296875 C-13.15974728 388.73250464 -24.63622649 391.35395532 -36.9375 391.37939453 C-47.34747182 391.18845075 -56.68015298 388.28973306 -64.3125 381.0625 C-65.01246094 380.42570312 -65.71242188 379.78890625 -66.43359375 379.1328125 C-74.77022436 370.78088532 -76.74536624 360.37503393 -76.84281152 348.88177961 C-76.82840402 347.04234804 -76.82840402 347.04234804 -76.81370544 345.16575623 C-76.81760856 343.81427317 -76.82325704 342.46279425 -76.83047634 341.11132485 C-76.84510405 337.43539967 -76.83512644 333.75990842 -76.82073963 330.08399785 C-76.80956079 326.10507076 -76.82159508 322.12620114 -76.83058167 318.14727783 C-76.844469 310.36779678 -76.83699158 302.58847875 -76.82190608 294.80900555 C-76.80499136 285.73880629 -76.80826309 276.66864701 -76.81200016 267.59843684 C-76.81787041 251.40942312 -76.80373959 235.22048733 -76.77905273 219.03149414 C-76.75513047 203.34201131 -76.74805111 187.65263256 -76.75854492 171.96313477 C-76.76996765 154.85428161 -76.77186776 137.74547651 -76.75744683 120.63662392 C-76.75592108 118.81053007 -76.75440072 116.98443622 -76.75288582 115.15834236 C-76.752128 114.26000169 -76.75137019 113.36166102 -76.75058941 112.4360979 C-76.74585737 106.12171766 -76.74769032 99.80735896 -76.75195122 93.49297905 C-76.75689015 85.79305358 -76.75083885 78.09322629 -76.73105692 70.39332324 C-76.72122088 66.46875777 -76.7160397 62.54434144 -76.72394943 58.61976814 C-76.73105491 55.02047338 -76.72408932 51.42147825 -76.7063458 47.82222272 C-76.70044565 45.91797905 -76.70907661 44.01370701 -76.71839231 42.10947698 C-76.62636465 29.51614633 -74.44765034 17.30891975 -65.30859375 8.02734375 C-55.85700865 0.06366471 -44.16474205 -1.89261828 -32.3125 -3.9375 C-31.15041016 -4.13859375 -31.15041016 -4.13859375 -29.96484375 -4.34375 C-19.92124101 -5.82863583 -8.38885973 -6.46963721 0 0 Z " fill="#32006e" transform="translate(1765.3125,262.9375)"/>
<path d="M0 0 C0.7425 0.26683594 1.485 0.53367188 2.25 0.80859375 C8.98325745 3.67787959 13.36908164 8.82961665 16.671875 15.25 C18.15663818 19.44227252 18.50134453 22.78725468 18.4375 27.1875 C18.42920166 27.9307251 18.42090332 28.6739502 18.41235352 29.43969727 C18.05538578 41.21709196 13.70207032 51.53931781 5.15625 59.77734375 C-13.89298347 75.11822234 -43.26665081 77.30614103 -66.63867188 80.05957031 C-92.66694181 83.151612 -118.48957865 87.26741165 -144.33203125 91.61328125 C-145.24099521 91.76610715 -146.14995918 91.91893304 -147.0864675 92.07639003 C-158.43998257 93.98648937 -169.79116391 95.9102627 -181.14146346 97.83936733 C-272.60937507 113.38482019 -272.60937507 113.38482019 -306.15524864 118.77461815 C-308.50485928 119.15304157 -310.85396155 119.53463936 -313.20246315 119.91988564 C-365.16450449 128.42406786 -365.16450449 128.42406786 -385.375 114.1875 C-392.79598623 108.06871643 -398.29289042 101.41983099 -399.8125 91.6875 C-400.64610224 80.99564516 -396.67464739 73.08023612 -390.28515625 64.76953125 C-362.46789245 33.42365048 -171.69824628 16.98556389 -123.29053593 9.94052696 C-114.29752449 8.63155341 -105.30739116 7.30469339 -96.31940174 5.96166801 C-89.20505832 4.89906063 -82.08914637 3.84747264 -74.9719038 2.80446053 C-70.81632564 2.19523119 -66.66150805 1.58174736 -62.50839233 0.95593262 C-16.22386441 -6.0059498 -16.22386441 -6.0059498 0 0 Z " fill="#32006e" transform="translate(1514,3)"/>
<path d="M0 0 C1.59618164 0.01135986 1.59618164 0.01135986 3.22460938 0.02294922 C15.6126452 0.28372994 25.60962968 3.49129411 34.84375 12.09765625 C41.23889316 18.9787049 42.65025435 25.84910202 42.4140625 35.125 C41.07692107 47.72384366 34.09480796 57.62685054 24.5 65.4375 C10.56641435 75.55686388 -8.16936953 77.71161567 -24.81640625 80.1796875 C-26.4378183 80.42624276 -28.05911216 80.67357633 -29.68029785 80.9216156 C-33.1428807 81.45015582 -36.60607486 81.97438825 -40.06985474 82.49502563 C-48.49175217 83.76129888 -56.91033308 85.04932392 -65.328825 86.3380146 C-67.28378833 86.63725909 -69.23879177 86.93624163 -71.1938343 87.23496819 C-85.72483475 89.45651902 -100.24183962 91.75508887 -114.75 94.12109375 C-115.6774276 94.27231312 -116.60485519 94.42353249 -117.56038666 94.57933426 C-121.28003677 95.18602685 -124.99963719 95.79302322 -128.71918869 96.40032005 C-155.2981379 100.73789928 -181.88229524 105.05970967 -208.55392456 108.79379272 C-210.95197751 109.13033551 -213.34927586 109.47231702 -215.74563599 109.82070923 C-267.03130312 117.23072588 -267.03130312 117.23072588 -286.72265625 104.125 C-293.83526067 98.70587282 -298.87025608 93.33956911 -300.9375 84.4375 C-302.28106968 74.23476775 -300.13744571 63.46255763 -294.125 55 C-293.09219674 53.78658336 -292.0304212 52.59706274 -290.9375 51.4375 C-290.47085937 50.90769531 -290.00421875 50.37789062 -289.5234375 49.83203125 C-275.31876592 35.66378191 -248.36621986 34.79737634 -229.56663132 32.41198158 C-206.15214707 29.42170892 -182.80738499 25.9620371 -159.4609375 22.48828125 C-158.10198907 22.28611284 -158.10198907 22.28611284 -156.71558714 22.07986021 C-145.45849139 20.40469733 -134.20227844 18.72364832 -122.94638765 17.0404104 C-114.2579849 15.74131854 -105.56897196 14.44633672 -96.87988853 13.15180683 C-88.46765981 11.89852093 -80.05565406 10.64374092 -71.64370775 9.38856101 C-69.86452941 9.12310068 -68.08534418 8.85768643 -66.30615187 8.59231973 C-60.47133176 7.72204155 -54.63670355 6.85048924 -48.80224609 5.9777832 C-47.64932377 5.80549969 -47.64932377 5.80549969 -46.47311008 5.62973571 C-37.11028716 4.22978182 -27.74906745 2.82079559 -18.41152763 1.25922108 C-12.27076469 0.25453771 -6.21445863 -0.06401421 0 0 Z " fill="#32006e" transform="translate(1523.9375,901.5625)"/>
<path d="M0 0 C1.12716431 0.01353516 1.12716431 0.01353516 2.27709961 0.02734375 C12.14700962 0.3330912 19.58792544 3.25700758 26.74609375 10.171875 C33.79318454 18.39584413 36.06437316 28.26038261 35.5625 38.875 C34.32936098 50.54871609 30.46582545 58.53561592 21.6875 66.4375 C11.61142142 74.42826841 -1.59870011 77.06018527 -13.97094727 79.37353516 C-14.88043656 79.54482248 -15.78992586 79.71610981 -16.72697544 79.89258766 C-26.93653521 81.78358803 -37.19372823 83.32307798 -47.46484375 84.8359375 C-49.57872491 85.15059155 -51.69254877 85.46563073 -53.80632019 85.78102112 C-59.45173501 86.62230619 -65.09790138 87.45843836 -70.74423981 88.29349899 C-76.65594493 89.16868176 -82.56695461 90.04853648 -88.47802734 90.92797852 C-97.00447968 92.19612064 -105.53116476 93.46267799 -114.05813599 94.72732639 C-128.24133233 96.83098172 -142.42293131 98.94515105 -156.60355568 101.06607056 C-163.11343454 102.03960695 -169.62346917 103.01210122 -176.13349056 103.98468399 C-181.2774603 104.75322222 -186.42137279 105.52213896 -191.56515503 106.29193115 C-196.36627535 107.01033154 -201.16764333 107.727054 -205.96920204 108.44251823 C-207.71607558 108.70309591 -209.462863 108.96425164 -211.20955467 109.22604561 C-264.38246113 117.19389162 -264.38246113 117.19389162 -285.30078125 103.09765625 C-290.88823848 98.77844413 -295.09102234 92.46722855 -296.3125 85.4375 C-296.97115926 73.96162902 -297.00665551 62.75147772 -289.3125 53.4375 C-274.1385946 37.19819273 -249.79442104 36.02182831 -228.96716309 33.26116943 C-221.99670215 32.33380469 -215.03090591 31.37338246 -208.06640625 30.40234375 C-207.29124538 30.29433189 -206.51608452 30.18632004 -205.71743393 30.0750351 C-190.61157323 27.96231423 -175.53688408 25.65695684 -160.46484375 23.31640625 C-159.28471521 23.13322908 -158.10458668 22.95005192 -156.88869667 22.76132393 C-144.98053244 20.91164637 -133.07410062 19.05110529 -121.16956806 17.17820072 C-115.51469112 16.28940005 -109.8591233 15.40507251 -104.203125 14.5234375 C-103.09745367 14.35099455 -101.99178234 14.1785516 -100.85260582 14.0008831 C-81.42004361 10.98034302 -61.95098896 8.282982 -42.44732666 5.76376343 C-32.3921785 4.45631836 -22.42327899 3.03223542 -12.48182678 1.02485657 C-8.29886695 0.24964811 -4.24711976 -0.06429702 0 0 Z " fill="#32006e" transform="translate(1898.3125,697.5625)"/>
<path d="M0 0 C1.3303125 0.86625 1.3303125 0.86625 2.6875 1.75 C9.51996703 8.39780576 13.25055206 16.057664 13.4375 25.625 C13.22773118 36.69613235 9.1752711 44.88189436 1.4921875 52.75390625 C-18.22060299 70.52013593 -48.93622245 72.77929055 -74 76 C-74.81227051 76.10747559 -75.62454102 76.21495117 -76.46142578 76.32568359 C-89.12587939 77.88943901 -104.06103918 79.06211939 -116 74 C-117.50240234 73.37931641 -117.50240234 73.37931641 -119.03515625 72.74609375 C-129.92741343 67.79261372 -136.57986033 61.15468725 -141 50 C-143.64572725 41.26570812 -141.90235724 33.05842812 -138 25 C-130.47749556 12.44804014 -118.71020462 6.58968097 -104.91357422 3.00585938 C-86.07132809 -1.56410158 -66.77513118 -3.84694089 -47.5625 -6.25 C-46.86435181 -6.33903595 -46.16620361 -6.4280719 -45.44689941 -6.51980591 C-29.0025215 -8.60169542 -14.40886637 -9.43721206 0 0 Z " fill="#32006e" transform="translate(1017,90)"/>
</svg>
